<?xml version="1.0"?>
<svg xmlns="http://www.w3.org/2000/svg" viewBox="0 0 64 64" width="512" height="512"><g id="Prescription"><path d="M47,7V61H7a4,4,0,0,1-4-4V7A4,4,0,0,1,7,3H43A4,4,0,0,1,47,7Z" style="fill:#e6e7e8"/><polygon points="47 24 47 61 10 61 47 24" style="fill:#d8d7da"/><path d="M61,32.67V59a2.006,2.006,0,0,1-2,2H35a2.006,2.006,0,0,1-2-2V32.67a1.969,1.969,0,0,1,.4-1.2L36,28V25H58v3l2.6,3.47A1.969,1.969,0,0,1,61,32.67Z" style="fill:#5aaae7"/><rect x="10" y="9" width="4" height="6" style="fill:#5aaae7"/><rect x="9" y="21" width="6" height="25" style="fill:#3d9ae2"/><rect x="37" y="34" width="20" height="22" rx="2" style="fill:#e6e7e8"/><polygon points="53 43 53 47 49 47 49 51 45 51 45 47 41 47 41 43 45 43 45 39 49 39 49 43 53 43" style="fill:#ff5023"/><path d="M55,19h4a1,1,0,0,1,1,1v4a1,1,0,0,1-1,1H35a1,1,0,0,1-1-1V20a1,1,0,0,1,1-1H55Z" style="fill:#787680"/><polygon points="43 3 43 13 40 10 37 13 37 3 43 3" style="fill:#ff5023"/><rect x="11" y="50" width="2" height="5" style="fill:#787680"/><path d="M19,31H17V20H14V18h4a1,1,0,0,1,1,1Z" style="fill:#1a6fb0"/><rect x="38" y="19" width="2" height="3" style="fill:#57565c"/><rect x="42" y="19" width="2" height="3" style="fill:#57565c"/><rect x="46" y="19" width="2" height="3" style="fill:#57565c"/><rect x="50" y="19" width="2" height="3" style="fill:#57565c"/><rect x="54" y="19" width="2" height="3" style="fill:#57565c"/><rect x="20" y="36" width="8" height="2" style="fill:#acabb1"/><rect x="20" y="40" width="8" height="2" style="fill:#acabb1"/><rect x="20" y="44" width="8" height="2" style="fill:#acabb1"/><rect x="20" y="48" width="8" height="2" style="fill:#acabb1"/><rect x="20" y="8" width="2" height="2" style="fill:#898890"/><rect x="24" y="8" width="8" height="2" style="fill:#acabb1"/><rect x="20" y="12" width="12" height="2" style="fill:#acabb1"/><polygon points="15 46 15 47 13 51 12 51 11 51 9 47 9 46 15 46" style="fill:#1e81ce"/><polygon points="15 19 15 21 9 21 9 15 10 15 14 15 15 15 15 19" style="fill:#1e81ce"/></g></svg>
